<svg width="433" height="1351" viewBox="0 0 433 1351" fill="none" xmlns="http://www.w3.org/2000/svg">
<g clip-path="url(#clip0_2_46)">
<path d="M427.6 200.44C425.49 208.34 422.47 216.12 421.15 224.02C420.13 230.11 416.88 234.57 414.97 239.87C412.34 247.2 410.16 254.78 409.14 262.56C408.62 266.5 407.81 270.71 406.3 273.9C404.1 278.55 405.3 283.45 403.37 288.01C402.42 290.25 402.17 293.13 400.87 295.35C399.36 297.94 399.45 300.67 398.99 303.42C397.64 311.46 397.76 319.76 393.97 327.39C392.11 331.12 392.45 335.66 391.32 339.81C388.23 351.15 384.7 362.39 381.88 373.77C378.58 387.05 373.57 399.65 368.8 412.32C365.62 420.79 362.16 429.29 356.6 436.84C352.57 442.31 349.02 448.3 345.66 454.23C343.28 458.43 340.4 462.2 337.19 465.38C332.11 470.42 330.07 477.06 326.22 482.69C324.63 485.02 325.18 486.55 327.77 488.3C334.04 492.52 341.19 495.76 345.43 502.55C346.35 504.02 348.03 503.7 349.39 504.2C356.38 506.74 363.07 509.81 367.3 516.45C367.83 517.28 368.36 518.19 369.12 518.77C376.54 524.42 382.03 531.6 385.95 540.02C387.78 543.95 388.14 548.65 392.38 551.29C393.03 551.69 392.84 553.46 393 554.6C393.21 556.07 392.95 557.83 393.66 558.98C398.35 566.58 398.91 575.02 399.13 583.59C399.25 588.33 398.54 593.05 400.71 597.75C402.48 601.59 399.77 605.55 398.71 609.25C396.55 616.8 392.36 623.54 388.45 630.32C387.35 632.24 386.83 634.04 387.33 635.96C389.71 645.13 392.7 654.17 394.58 663.44C395.85 669.71 396.54 676.13 398.98 682.07C401.52 688.23 403.04 694.7 406.06 700.78C408.37 705.42 409.06 711.11 410.84 716.24C414.42 726.55 416.69 737.22 418.72 747.91C421.58 762.98 421.4 778.26 420.74 793.49C420.58 797.28 417.95 801.11 415.84 803.92C411.35 809.89 409.63 816.84 406.41 823.19C403.91 828.13 400.5 832.71 398.65 837.96C395.22 847.69 390.25 856.73 386.53 866.36C383.19 875 379.15 883.44 376.16 892.27C371.87 904.9 366.75 917.33 363.55 930.24C360.6 942.16 355.3 953.14 351.94 964.83C349.01 975.05 346.2 985.3 343.1 995.47C340.42 1004.26 337.37 1012.93 334.58 1021.68C331.4 1031.66 328.29 1041.66 325.25 1051.68C322.68 1060.13 319.97 1068.55 317.83 1077.11C315.96 1084.58 315.11 1092.3 313.2 1099.76C311 1108.37 312.18 1117.81 308.14 1125.75C304.53 1132.86 300.51 1139.84 297.11 1147.06C292.87 1156.07 287.37 1165.11 286.57 1174.89C286.08 1180.79 282.03 1183.41 280.48 1187.94C278.8 1192.85 274.35 1195.71 270.6 1199.18C268 1201.59 265.68 1204.28 262.46 1205.84C256.65 1208.66 256.72 1215.13 253.83 1219.73C248.95 1227.49 246.69 1236.3 245.11 1245.52C243.44 1255.24 239.35 1264.53 236.67 1274.11C235.5 1278.31 233.28 1282.47 235.24 1287.2C236.24 1289.61 232.45 1298.86 229.85 1299.81C221.13 1303.01 221.91 1311.39 219.53 1317.98C216.1 1327.49 215.23 1337.85 210 1346.78C207.14 1351.66 198.07 1351.55 195.12 1346.68C192.58 1342.48 192.79 1337.5 191.04 1333.05C190.18 1330.86 189.33 1328.64 187.13 1328.44C183.52 1328.11 181.6 1325.67 179.38 1323.52C176.78 1321.01 174.6 1318.14 170.5 1317.66C168.37 1317.41 166.18 1315.28 165.83 1313.55C165.04 1309.65 162.15 1308.05 159.63 1305.83C156.11 1302.72 153.72 1298.98 152.71 1294.19C152.17 1291.65 151 1289.08 148.06 1287.59C145.82 1286.46 143.96 1284.37 142.89 1281.76C142.09 1279.8 140.7 1278.1 138.4 1277.42C136.58 1281.58 135.98 1285.84 135.44 1290.28C134.86 1294.98 133.05 1299.47 128.48 1302.57C124.41 1305.33 124.32 1310.53 123.81 1315C123.36 1319.01 122.91 1323.52 119.83 1325.7C112.51 1330.9 106.45 1328.4 105.54 1319.24C104.83 1312.04 103.84 1304.83 102.83 1297.7C101.5 1288.34 100.09 1278.87 96.94 1269.84C96.19 1267.68 94.32 1266.45 92.87 1264.9C91.35 1263.27 90.19 1261.39 92.1 1259.74C97.22 1255.32 94.43 1251.3 91.44 1247.73C88.69 1244.44 88.95 1241.41 89.95 1237.63C91.68 1231.06 93.23 1224.25 86.97 1218.87C85.33 1217.46 85.55 1216.5 86.87 1214.82C90.68 1209.95 89.9 1198.19 85.86 1193.56C83.27 1190.59 83.11 1186.81 85.9 1184.48C88.05 1182.69 87.34 1181.32 87.28 1179.5C87.16 1175.51 86.8 1171.47 87.21 1167.52C88.28 1157.16 85.62 1147.08 84.64 1136.93C84.04 1130.73 84.29 1124.28 82.85 1118.31C81.14 1111.22 81.29 1104.21 81.06 1097.14C80.95 1093.9 77.93 1092.32 77.03 1089.33C74.3 1080.25 73.24 1070.79 70.54 1061.6C67.35 1062.76 68.06 1065.34 67.85 1067.53C66.55 1081.21 66.83 1095.08 65.25 1108.6C63.67 1122.08 65.03 1135.45 63.72 1148.77C62.97 1156.4 62.3 1164.1 60.31 1171.6C59.56 1174.42 59.7 1177.56 59.88 1180.53C60.48 1190.74 55.47 1199.63 53.16 1209.13C52.27 1212.78 48.43 1215.04 43.95 1214.13C39.08 1213.14 37.94 1208.86 37.55 1205.17C37.06 1200.51 36.92 1195.96 34.1 1192C33 1190.45 34.46 1189.6 34.91 1188.47C38.75 1178.87 37.94 1169.12 35.84 1159.32C35.6 1158.19 35.32 1157.03 35.32 1155.89C35.32 1147.11 33.44 1138.62 31.57 1130.1C30.41 1124.82 30.59 1119.31 29.91 1113.92C28.98 1106.61 27.69 1099.27 27.07 1091.86C24.98 1067 23.76 1042.01 25.71 1017.28C28.34 983.87 26.34 950.53 27.2 917.17C27.27 914.53 27.08 912.02 25.93 909.42C24.55 906.29 24.68 902.75 27.67 900.31C30.71 897.83 30.94 894.65 31.32 891.04C32.33 881.49 29.8 872.27 28.7 863.01C28.04 857.48 27.95 851.88 27.1 846.39C24.71 830.92 24.56 815.23 22.72 799.79C21.51 789.67 22.32 779.64 21.05 769.69C20.39 764.51 20.45 758.76 16.36 754.52C15.03 753.14 15.27 751.44 15.26 749.81C15.24 739.49 14.57 729.09 15.56 718.86C16.13 712.96 16.95 706.89 18.59 700.99C20.11 695.5 19.26 689.55 21.21 683.95C24.34 675 26.18 665.63 30.85 657.19C35.43 648.92 38.41 639.97 41.33 630.97C43.06 625.63 38.5 624.92 36.15 623.14C27.46 616.57 21.92 608.32 21.34 597.34C21.18 594.23 19.17 591.76 19.36 588.7C20.17 575.6 22.09 562.69 29.8 551.72C31.88 548.76 34.05 544.99 38.13 543.66C38.7 543.47 39.16 542.85 39.62 542.37C47.77 533.87 58.47 528.84 67.54 521.64C72.98 517.32 79.35 513.92 83.36 507.83C86.41 503.2 91.19 500.61 96.03 498.41C98.98 497.07 100.29 493.25 104.2 493.39C104.81 493.41 106.94 492.3 104.38 490.41C98.73 486.25 92.83 482.26 87.67 477.59C81.93 472.39 76.95 466.36 72.77 459.49C69.59 454.27 66.93 448.92 63.97 443.68C61.51 439.31 60.91 434.69 59.47 430.32C56.45 421.17 54.04 411.74 54.95 401.78C55.22 398.78 53.27 395.61 50.9 393.58C47.77 390.9 47.71 387.58 46.94 383.96C45.65 377.9 46.17 371.46 41.83 365.87C37.62 360.44 37.44 352.99 35.36 346.47C32.33 336.98 31.24 326.97 28.78 317.39C26.61 308.95 26.07 300.05 22.02 291.9C20.33 288.51 18.81 283.93 19.33 279.55C19.65 276.85 18.4 274.62 17.34 272.49C14.92 267.64 16.71 262.45 15.56 257.42C12.83 245.53 13.98 232.79 7.74001 221.64C7.51001 221.23 7.42001 220.66 7.47001 220.18C8.28001 212.86 4.92001 206.38 3.50001 199.5C1.84001 191.48 1.22001 183.26 1.19001 175C1.17001 169.43 2.52001 163.7 0.120007 158.25C-0.0499929 157.87 7.10785e-06 157.12 0.270007 156.86C4.20001 152.94 2.86001 147.07 5.48001 142.76C7.71001 139.11 11.26 136.05 14.95 134.68C22.52 131.87 30.19 132.34 36.23 138.93C37.73 140.57 38.79 139.54 40.03 138.57C43.35 135.97 47.26 134.83 51.34 134.28C57.4 133.46 62.63 134.56 66.63 139.96C70.32 144.95 74.63 140.57 78.26 139.46C81.26 138.55 81.98 135.27 81.6 131.62C80.49 121.23 77.07 111.59 73.77 101.78C67.89 84.2799 63.54 66.5099 64.97 47.5999C65.78 36.8699 68.42 27.4399 75.73 19.5199C76.47 18.7099 77.63 18.2399 78.66 17.7499C87.78 13.4399 96.82 8.91994 106.1 4.97994C109.64 3.47994 113.81 3.34994 117.64 2.69994C133.78 0.0199387 150.23 -0.730061 166.54 0.739939C178.63 1.82994 190.9 4.07994 202.34 7.62994C209.85 9.95994 219.43 12.1699 223.85 20.9599C224.12 21.4999 224.73 21.9899 225.29 22.2599C228.39 23.7399 228.35 28.9599 231.84 29.0099C235.18 29.0599 236.42 23.9199 239.46 23.2199C247.12 21.4599 254.04 17.7699 261.78 15.9599C277.46 12.2999 293.22 11.5299 308.94 12.7299C321.15 13.6599 333.68 14.0499 345.16 20.2499C354.8 25.4599 362.07 32.7299 365.95 42.4899C370.13 52.9899 370.35 64.2199 367.95 75.5299C366.48 82.4199 365.34 89.3599 363.13 96.0599C360.78 103.2 360.3 110.67 358.98 118C358.26 122.01 357.43 126.02 356.67 130.04C356.27 132.14 355.07 133.36 357.85 134.66C360.67 135.97 363.24 137.55 366.01 134.98C371.97 129.45 384.34 128.39 390.93 133.01C393.41 134.75 395.78 134.7 398.34 133.28C403.99 130.15 409.68 127.24 416.52 128.27C418.57 128.58 419.79 129.96 421.33 130.8C427.85 134.36 429.03 141.29 432.63 146.65C432.63 160.64 432.63 174.63 432.63 188.62C427.64 191.07 428.63 196.5 427.58 200.44H427.6ZM211.86 107.03C210.39 110.87 211.45 115.33 209.82 119.58C207.22 126.35 207.52 133.74 207.4 141.02C207.31 146.19 209.33 150.32 211.74 154.39C213.47 157.33 216.81 157.1 219.6 156.47C226.1 154.99 230 146.88 227.41 140.6C226.61 138.66 226.71 136.68 226.8 134.72C227.2 126.09 225.27 117.92 223.4 109.53C222.05 103.47 221.08 96.9799 220.8 90.5899C220.66 87.3299 220.78 84.0599 220.78 79.6399C216.22 89.1399 215.18 98.4299 211.88 107.03H211.86Z" fill="black"/>
</g>
<defs>
<clipPath id="clip0_2_46">
<rect width="432.65" height="1350.38" fill="white"/>
</clipPath>
</defs>
</svg>
